# xmcd CD database file
#
# Track frame offsets:
#	150
#	28910
#	56377
#	82306
#	97036
#	142565
#	168367
#	194310
#	214017
#	255499
#
# Disc length: 3938 seconds
#
# Revision: 0
# Processed by: cddbd v1.5.2PL0 Copyright (c) Steve Scherf et al.
# Submitted via: CDex 1.70beta2
#
DISCID=840f600a
DTITLE=The Savoy Recordings - Adderly Brothers - Part 1
DYEAR=1900
DGENRE=Jazz
TTITLE0=Willow Weep For Me
TTITLE1=Bohemia After Dark (Take 2)
TTITLE2=Bohemia After Dark (Take 1)
TTITLE3=Late Entry
TTITLE4=Spontaneous Combustion
TTITLE5=With Apologies To Oscar (Take 3)
TTITLE6=With Apologies To Oscar (Take 2)
TTITLE7=Chasm
TTITLE8=Hear Me Talking To Ya
TTITLE9=Still Talking To Ya
EXTD=
EXTT0=
EXTT1=
EXTT2=
EXTT3=
EXTT4=
EXTT5=
EXTT6=
EXTT7=
EXTT8=
EXTT9=
PLAYORDER=
